<svg xmlns="http://www.w3.org/2000/svg" viewBox="0 0 24 24" fill="#2496ED">
  <path d="M13.983 11.078h2.119a.186.186 0 0 0 .186-.185V9.006a.186.186 0 0 0-.186-.186h-2.119a.185.185 0 0 0-.185.185v1.888c0 .102.083.185.185.185m-2.954-5.43h2.118a.186.186 0 0 0 .186-.186V3.574a.186.186 0 0 0-.186-.185h-2.118a.185.185 0 0 0-.185.185v1.888c0 .102.082.185.185.185m0 2.716h2.118a.187.187 0 0 0 .186-.186V6.29a.186.186 0 0 0-.186-.185h-2.118a.185.185 0 0 0-.185.185v1.888c0 .102.082.186.185.186m2.954 0h2.118a.186.186 0 0 0 .186-.186V6.29a.186.186 0 0 0-.186-.185h-2.118a.185.185 0 0 0-.185.185v1.888c0 .102.082.186.185.186m-2.954 2.716h2.118a.186.186 0 0 0 .186-.186V8.722a.186.186 0 0 0-.186-.186h-2.118a.185.185 0 0 0-.185.186v1.887c0 .102.082.185.185.185m-2.954 0h2.118a.186.186 0 0 0 .186-.186V8.722a.186.186 0 0 0-.186-.186H8.1a.185.185 0 0 0-.185.186v1.887c0 .102.082.185.185.185m-2.954 0h2.118a.186.186 0 0 0 .186-.186V8.722a.186.186 0 0 0-.186-.186H5.146a.186.186 0 0 0-.186.186v1.887c0 .102.084.185.186.185m5.908 3.03c-.635 0-1.151-.499-1.151-1.116 0-.617.516-1.116 1.151-1.116.636 0 1.151.499 1.151 1.116 0 .617-.515 1.116-1.151 1.116M22.012 12.278c0-.593-.132-1.123-.403-1.552-.661-1.063-2.056-1.485-3.38-1.485-.161 0-.328.006-.495.018-1.836.1-2.96.688-3.815 1.495l-.385.398-.51-.416-.386-.315-.445-.36c-.698-.56-1.459-.8-2.413-.8-1.394 0-2.199.564-2.73 1.164-.545.615-.806 1.424-.806 2.24 0 .586.13 1.177.388 1.755a4.321 4.321 0 0 0 1.089 1.463c.726.636 1.677 1.123 2.823 1.457.463.133.94.24 1.431.31l.27.043c.235.036.472.054.714.054 1.058 0 2.004-.235 2.817-.694.525-.298.98-.676 1.36-1.13.044-.051.086-.103.127-.155.485-.618.784-1.319.9-2.098.04-.291.06-.588.06-.886 0-.7-.157-1.43-.476-2.077"/>
</svg>
